<?xml version="1.0" encoding="UTF-8"?>
<!--Generator: Apple Native CoreSVG 341-->
<!DOCTYPE svg
PUBLIC "-//W3C//DTD SVG 1.1//EN"
       "http://www.w3.org/Graphics/SVG/1.1/DTD/svg11.dtd">
<svg version="1.1" xmlns="http://www.w3.org/2000/svg" xmlns:xlink="http://www.w3.org/1999/xlink" viewBox="0 0 121.582 121.729">
 <g>
  <rect height="121.729" opacity="0" width="121.582" x="0" y="0"/>
  <path d="M4.3457 39.2578C7.12891 39.2578 8.64258 37.6465 8.64258 34.8633L8.64258 19.4336C8.64258 12.4023 12.3535 8.78906 19.1895 8.78906L34.9121 8.78906C37.6953 8.78906 39.3066 7.22656 39.3066 4.49219C39.3066 1.70898 37.6953 0.146484 34.9121 0.146484L18.9941 0.146484C6.39648 0.146484 0 6.44531 0 18.9453L0 34.8633C0 37.6465 1.5625 39.2578 4.3457 39.2578ZM117.236 39.2578C120.068 39.2578 121.582 37.6465 121.582 34.8633L121.582 18.9453C121.582 6.54297 115.234 0.146484 102.588 0.146484L86.6699 0.146484C83.8867 0.146484 82.2754 1.70898 82.2754 4.49219C82.2754 7.22656 83.8867 8.78906 86.6699 8.78906L102.393 8.78906C109.082 8.78906 112.939 12.4023 112.939 19.4336L112.939 34.8633C112.939 37.6465 114.502 39.2578 117.236 39.2578ZM18.9941 121.729L34.9121 121.729C37.6953 121.729 39.3066 120.166 39.3066 117.383C39.3066 114.648 37.6953 113.086 34.9121 113.086L19.1895 113.086C12.3535 113.086 8.64258 109.473 8.64258 102.441L8.64258 87.0117C8.64258 84.2285 7.08008 82.6172 4.3457 82.6172C1.51367 82.6172 0 84.2285 0 87.0117L0 102.93C0 115.43 6.39648 121.729 18.9941 121.729ZM86.6699 121.729L102.588 121.729C115.234 121.729 121.582 115.332 121.582 102.93L121.582 87.0117C121.582 84.2285 120.02 82.6172 117.236 82.6172C114.453 82.6172 112.939 84.2285 112.939 87.0117L112.939 102.441C112.939 109.473 109.082 113.086 102.393 113.086L86.6699 113.086C83.8867 113.086 82.2754 114.648 82.2754 117.383C82.2754 120.166 83.8867 121.729 86.6699 121.729Z" fill="white" fill-opacity="0.85"/>
  <path d="M43.1641 99.8047L81.0059 99.8047C88.6719 99.8047 92.6758 95.7031 92.6758 88.0371L92.6758 55.0781C92.6758 50.5859 91.9922 48.5352 89.3555 45.8984L68.9453 25.1953C66.5039 22.6562 64.1602 21.8262 60.1074 21.8262L43.1641 21.8262C35.5469 21.8262 31.4941 25.9277 31.4941 33.5938L31.4941 88.0371C31.4941 95.7031 35.5469 99.8047 43.1641 99.8047ZM43.4082 92.8223C39.9902 92.8223 38.4277 91.2109 38.4277 87.9883L38.4277 33.6914C38.4277 30.4688 40.0391 28.8086 43.457 28.8086L58.6426 28.8086L58.6426 48.877C58.6426 53.5645 61.2305 56.1035 65.9668 56.1035L85.7422 56.1035L85.7422 87.9883C85.7422 91.2109 84.1797 92.8223 80.7617 92.8223ZM66.6504 49.4629C65.6738 49.4629 65.3809 49.1211 65.3809 48.1445L65.3809 31.2988L83.252 49.4629Z" fill="white" fill-opacity="0.85"/>
 </g>
</svg>
